<svg xmlns="http://www.w3.org/2000/svg" width="11" height="10" viewBox="0 0 11 10" fill="none">
  <path d="M4.76808 0.301895C4.94179 -0.100632 5.51254 -0.100632 5.68624 0.301895L6.77626 2.82784C6.84981 2.99828 7.01173 3.11394 7.19682 3.12824L9.99214 3.34424C10.4406 3.3789 10.6188 3.94193 10.272 4.22832L8.16976 5.96396C8.02149 6.08638 7.95655 6.28299 8.00274 6.46965L8.64971 9.08381C8.75611 9.51372 8.29234 9.85949 7.91069 9.63481L5.48083 8.20432C5.32428 8.11216 5.13005 8.11216 4.9735 8.20432L2.54363 9.63481C2.16199 9.85949 1.69822 9.51372 1.80462 9.08381L2.45159 6.46965C2.49778 6.28299 2.43284 6.08638 2.28456 5.96396L0.182371 4.22832C-0.164508 3.94193 0.0136943 3.3789 0.462188 3.34424L3.25751 3.12824C3.4426 3.11394 3.60452 2.99828 3.67807 2.82784L4.76808 0.301895Z" fill="#FBAB5E"/>
</svg>